<svg version="1.1" id="Layer_1" xmlns="http://www.w3.org/2000/svg" xmlns:xlink="http://www.w3.org/1999/xlink" x="0px" y="0px"
	 width="100%" viewBox="0 0 1080 1080" enable-background="new 0 0 1080 1080" xml:space="preserve">
<path fill="#FFFFFF" opacity="1.000000" stroke="none" 
	d="
M628.000000,1081.000000 
	C418.690765,1081.000000 209.881531,1081.000000 1.036147,1081.000000 
	C1.036147,721.065674 1.036147,361.131287 1.036147,1.098460 
	C360.892792,1.098460 720.785645,1.098460 1080.839233,1.098460 
	C1080.839233,360.999939 1080.839233,720.999939 1080.839233,1081.000000 
	C930.130859,1081.000000 779.315430,1081.000000 628.000000,1081.000000 
M692.902832,465.605591 
	C692.725830,465.666626 692.548828,465.727631 692.371826,465.788635 
	C692.600586,465.834229 692.829285,465.879791 692.816223,466.651459 
	C700.322021,483.262573 708.988831,499.458588 715.105713,516.566345 
	C730.531921,559.710327 734.669250,604.303406 729.131042,649.803101 
	C725.245789,681.723145 716.266296,712.151489 702.327576,741.079956 
	C684.551331,777.972656 660.113464,809.789001 629.223877,836.746094 
	C601.803406,860.675598 571.026611,878.849243 536.944153,891.360413 
	C489.439026,908.798828 440.563080,913.511169 390.545807,905.948792 
	C357.115173,900.894104 325.421051,890.509216 295.672729,874.331177 
	C293.296997,873.039185 290.783661,872.000305 287.054108,870.239380 
	C320.261505,925.830688 364.828156,966.860779 422.714569,992.070801 
	C506.103180,1028.387207 589.574402,1026.411255 672.237305,988.641235 
	C696.097717,1043.862793 753.051270,1060.401367 793.628479,1051.980957 
	C839.176575,1042.529175 873.781555,1006.019714 879.703064,959.936035 
	C885.287048,916.479187 866.063354,867.956726 812.639832,844.195312 
	C813.572876,842.112915 814.538025,840.042236 815.432129,837.941223 
	C816.405273,835.654602 817.334167,833.348511 818.245239,831.036255 
	C838.239380,780.295044 844.685852,728.073914 836.029724,674.030396 
	C829.138794,631.007690 813.409119,591.494080 789.233765,555.448303 
	C772.380127,530.319336 752.094299,508.046936 727.970276,489.650421 
	C716.798584,481.131134 704.670166,473.866455 692.902832,465.605591 
M389.021149,616.676758 
	C389.199097,616.290527 389.377045,615.904297 389.247498,614.880310 
	C387.459106,611.534607 385.617828,608.215881 383.890472,604.838928 
	C367.161621,572.134155 356.567810,537.666809 352.656097,501.016968 
	C349.433014,470.818817 350.487885,440.897644 356.395935,411.217834 
	C364.592560,370.041473 380.961151,332.288727 405.279327,297.982819 
	C431.808746,260.557495 465.232635,230.849487 505.378601,208.841553 
	C536.800659,191.616043 570.351501,180.600906 605.954529,175.720886 
	C639.390503,171.137878 672.557129,172.156082 705.608032,178.789413 
	C736.032227,184.895538 764.674805,195.784622 791.852295,210.662460 
	C792.716736,211.135651 793.695129,211.400467 795.590088,212.141739 
	C755.174011,145.365936 699.271790,99.666168 625.509705,77.168533 
	C551.963684,54.736767 480.065338,60.652920 410.305725,93.103622 
	C385.184357,44.168491 345.306793,21.291180 291.238647,29.742363 
	C247.197464,36.626270 216.561295,63.734173 205.664490,107.092316 
	C190.610184,166.993103 214.884171,210.436310 268.354279,238.075455 
	C263.597931,251.470825 258.436615,264.572693 254.294067,277.989166 
	C246.968964,301.712921 243.006134,326.104095 242.145401,350.923401 
	C241.232666,377.242157 243.927383,403.215759 249.944702,428.894562 
	C258.329193,464.675262 272.964722,497.653412 293.623474,527.965698 
	C309.711121,551.570862 328.634033,572.713989 351.177338,590.279846 
	C363.168304,599.623352 376.200165,607.630920 389.021149,616.676758 
M700.038208,242.960648 
	C681.554932,243.395462 663.559326,247.087311 645.773560,251.669800 
	C622.227783,257.736389 599.885864,266.878632 578.516357,278.592560 
	C556.697144,290.553009 536.372314,304.647614 518.749268,322.060425 
	C505.207031,335.441132 493.014252,350.250244 480.880676,364.967682 
	C474.779053,372.368744 470.145111,380.979767 464.847443,389.043640 
	C465.182617,389.371216 465.517761,389.698822 465.852936,390.026398 
	C467.871033,389.023224 469.858032,387.950745 471.912231,387.027924 
	C486.862152,380.311920 501.530182,372.836060 516.850525,367.106293 
	C543.222900,357.243011 570.889709,352.815125 598.902100,351.128448 
	C618.656433,349.939056 638.539734,350.794922 657.952759,354.399963 
	C675.798462,357.713989 693.394287,362.700592 710.810547,367.917389 
	C732.573303,374.436066 752.599731,384.956848 771.693115,397.181366 
	C799.903259,415.242859 824.449585,437.319550 845.276428,463.655579 
	C865.544739,489.285339 881.033264,517.421387 892.139038,548.095520 
	C901.969238,575.246155 906.794373,603.365173 908.979553,632.952942 
	C909.002136,641.627075 909.024719,650.301270 908.988708,659.866455 
	C906.203003,707.616333 893.553284,752.573914 870.335876,794.605164 
	C926.047852,762.246826 967.687561,717.181519 992.960327,658.381409 
	C1028.582031,575.503723 1026.571777,492.512329 989.308228,410.454834 
	C1041.330200,382.764679 1063.400146,340.143921 1050.586548,282.438995 
	C1041.392456,241.034851 1007.223816,207.665253 961.366272,202.502304 
	C907.446411,196.431671 867.689697,218.989258 844.341736,268.212189 
	C830.085327,263.251526 816.013916,257.763245 801.585144,253.477844 
	C781.545715,247.526047 761.085815,243.381165 739.447510,242.380463 
	C727.347778,242.272263 715.248047,242.147797 703.148071,242.095795 
	C702.415344,242.092636 701.680176,242.665680 700.038208,242.960648 
M211.341904,287.220062 
	C209.872498,287.990753 208.348358,288.673157 206.941818,289.545227 
	C181.264938,305.464630 158.103882,324.345123 138.129837,347.132446 
	C121.959625,365.580200 108.114059,385.552612 96.860764,407.329590 
	C87.613373,425.224854 80.088631,443.832764 74.844681,463.280548 
	C69.492172,483.130951 65.321136,503.220154 64.376289,524.524231 
	C64.234642,534.975281 64.034950,545.426147 64.000771,555.877563 
	C63.994007,557.945190 64.623413,560.014954 64.943527,562.998047 
	C65.597054,569.913818 66.173470,576.837952 66.918030,583.743896 
	C69.543694,608.097412 76.236923,631.390259 85.452148,654.005920 
	C87.921463,660.065979 90.574234,666.051331 93.048393,671.849731 
	C43.983307,696.673950 22.109949,736.222046 29.338030,789.868347 
	C34.887974,831.059570 63.913776,865.887573 106.036720,876.420898 
	C166.434723,891.523926 210.150986,867.736145 238.502014,813.299744 
	C265.214630,825.349670 293.058411,833.800049 322.125153,837.659180 
	C351.057037,841.500366 379.981567,840.994995 408.858154,836.203735 
	C437.814362,831.399231 465.430573,822.695618 491.727448,809.668762 
	C517.897583,796.704529 542.082947,780.791870 562.979126,760.354187 
	C589.163574,734.744507 615.896362,699.883911 616.183838,691.767212 
	C574.563049,715.895935 529.671753,728.331238 481.039825,730.969177 
	C471.704437,731.001526 462.369049,731.033936 452.191803,730.965454 
	C446.438965,730.316772 440.693085,729.597412 434.932037,729.032410 
	C416.228912,727.198425 397.965942,723.150940 380.099426,717.498596 
	C349.479492,707.811523 321.149719,693.490601 295.163635,674.547546 
	C271.785248,657.505493 251.302567,637.539124 233.720016,614.568115 
	C216.595306,592.195251 203.055283,567.864624 192.795425,541.608887 
	C181.063461,511.585876 174.432800,480.422760 173.306320,448.368011 
	C172.674088,430.377777 173.996536,412.171234 176.133713,394.264465 
	C179.710205,364.298370 188.489532,335.651215 201.698288,308.435211 
	C205.159760,301.302979 208.564362,294.143158 212.274384,286.928741 
	C212.183868,286.953766 212.093338,286.978790 211.341904,287.220062 
z"/>
<path fill="#CE9FB7" opacity="1.000000" stroke="none" 
	d="
M64.956635,523.905945 
	C65.321136,503.220154 69.492172,483.130951 74.844681,463.280548 
	C80.088631,443.832764 87.613373,425.224854 96.860764,407.329590 
	C108.114059,385.552612 121.959625,365.580200 138.129837,347.132446 
	C158.103882,324.345123 181.264938,305.464630 206.941818,289.545227 
	C208.348358,288.673157 209.872498,287.990753 211.670959,287.110046 
	C212.000000,287.000000 211.995087,286.996002 211.995087,286.996002 
	C208.564362,294.143158 205.159760,301.302979 201.698288,308.435211 
	C188.489532,335.651215 179.710205,364.298370 176.133713,394.264465 
	C173.996536,412.171234 172.674088,430.377777 173.306320,448.368011 
	C174.432800,480.422760 181.063461,511.585876 192.795425,541.608887 
	C203.055283,567.864624 216.595306,592.195251 233.720016,614.568115 
	C251.302567,637.539124 271.785248,657.505493 295.163635,674.547546 
	C321.149719,693.490601 349.479492,707.811523 380.099426,717.498596 
	C397.965942,723.150940 416.228912,727.198425 434.932037,729.032410 
	C440.693085,729.597412 446.438965,730.316772 452.909485,731.301758 
	C459.377686,731.760254 465.129883,732.023071 470.878082,731.954468 
	C474.577332,731.910339 478.270782,731.379211 481.966827,731.066345 
	C529.671753,728.331238 574.563049,715.895935 616.183838,691.767212 
	C615.896362,699.883911 589.163574,734.744507 562.979126,760.354187 
	C542.082947,780.791870 517.897583,796.704529 491.727448,809.668762 
	C465.430573,822.695618 437.814362,831.399231 408.858154,836.203735 
	C379.981567,840.994995 351.057037,841.500366 322.125153,837.659180 
	C293.058411,833.800049 265.214630,825.349670 238.502014,813.299744 
	C210.150986,867.736145 166.434723,891.523926 106.036720,876.420898 
	C63.913776,865.887573 34.887974,831.059570 29.338030,789.868347 
	C22.109949,736.222046 43.983307,696.673950 93.048393,671.849731 
	C90.574234,666.051331 87.921463,660.065979 85.452148,654.005920 
	C76.236923,631.390259 69.543694,608.097412 66.918030,583.743896 
	C66.173470,576.837952 65.597054,569.913818 64.966736,562.064453 
	C64.978836,548.722534 64.967735,536.314209 64.956635,523.905945 
z"/>
<path fill="#FDD6A8" opacity="1.000000" stroke="none" 
	d="
M909.047363,632.021912 
	C906.794373,603.365173 901.969238,575.246155 892.139038,548.095520 
	C881.033264,517.421387 865.544739,489.285339 845.276428,463.655579 
	C824.449585,437.319550 799.903259,415.242859 771.693115,397.181366 
	C752.599731,384.956848 732.573303,374.436066 710.810547,367.917389 
	C693.394287,362.700592 675.798462,357.713989 657.952759,354.399963 
	C638.539734,350.794922 618.656433,349.939056 598.902100,351.128448 
	C570.889709,352.815125 543.222900,357.243011 516.850525,367.106293 
	C501.530182,372.836060 486.862152,380.311920 471.912231,387.027924 
	C469.858032,387.950745 467.871033,389.023224 465.852936,390.026398 
	C465.517761,389.698822 465.182617,389.371216 464.847443,389.043640 
	C470.145111,380.979767 474.779053,372.368744 480.880676,364.967682 
	C493.014252,350.250244 505.207031,335.441132 518.749268,322.060425 
	C536.372314,304.647614 556.697144,290.553009 578.516357,278.592560 
	C599.885864,266.878632 622.227783,257.736389 645.773560,251.669800 
	C663.559326,247.087311 681.554932,243.395462 700.966187,242.975677 
	C714.611450,242.984406 727.328796,242.978104 740.046143,242.971802 
	C761.085815,243.381165 781.545715,247.526047 801.585144,253.477844 
	C816.013916,257.763245 830.085327,263.251526 844.341736,268.212189 
	C867.689697,218.989258 907.446411,196.431671 961.366272,202.502304 
	C1007.223816,207.665253 1041.392456,241.034851 1050.586548,282.438995 
	C1063.400146,340.143921 1041.330200,382.764679 989.308228,410.454834 
	C1026.571777,492.512329 1028.582031,575.503723 992.960327,658.381409 
	C967.687561,717.181519 926.047852,762.246826 870.335876,794.605164 
	C893.553284,752.573914 906.203003,707.616333 909.308655,659.126953 
	C909.755615,653.953369 910.056702,649.515564 909.960449,645.086365 
	C909.865784,640.726990 909.368164,636.376343 909.047363,632.021912 
z"/>
<path fill="#019371" opacity="1.000000" stroke="none" 
	d="
M388.762207,616.241516 
	C376.200165,607.630920 363.168304,599.623352 351.177338,590.279846 
	C328.634033,572.713989 309.711121,551.570862 293.623474,527.965698 
	C272.964722,497.653412 258.329193,464.675262 249.944702,428.894562 
	C243.927383,403.215759 241.232666,377.242157 242.145401,350.923401 
	C243.006134,326.104095 246.968964,301.712921 254.294067,277.989166 
	C258.436615,264.572693 263.597931,251.470825 268.354279,238.075455 
	C214.884171,210.436310 190.610184,166.993103 205.664490,107.092316 
	C216.561295,63.734173 247.197464,36.626270 291.238647,29.742363 
	C345.306793,21.291180 385.184357,44.168491 410.305725,93.103622 
	C480.065338,60.652920 551.963684,54.736767 625.509705,77.168533 
	C699.271790,99.666168 755.174011,145.365936 795.590088,212.141739 
	C793.695129,211.400467 792.716736,211.135651 791.852295,210.662460 
	C764.674805,195.784622 736.032227,184.895538 705.608032,178.789413 
	C672.557129,172.156082 639.390503,171.137878 605.954529,175.720886 
	C570.351501,180.600906 536.800659,191.616043 505.378601,208.841553 
	C465.232635,230.849487 431.808746,260.557495 405.279327,297.982819 
	C380.961151,332.288727 364.592560,370.041473 356.395935,411.217834 
	C350.487885,440.897644 349.433014,470.818817 352.656097,501.016968 
	C356.567810,537.666809 367.161621,572.134155 383.890472,604.838928 
	C385.617828,608.215881 387.459106,611.534607 389.197388,615.373840 
	C389.018921,615.992065 388.890564,616.116821 388.762207,616.241516 
z"/>
<path fill="#01A657" opacity="1.000000" stroke="none" 
	d="
M692.975464,466.032959 
	C704.670166,473.866455 716.798584,481.131134 727.970276,489.650421 
	C752.094299,508.046936 772.380127,530.319336 789.233765,555.448303 
	C813.409119,591.494080 829.138794,631.007690 836.029724,674.030396 
	C844.685852,728.073914 838.239380,780.295044 818.245239,831.036255 
	C817.334167,833.348511 816.405273,835.654602 815.432129,837.941223 
	C814.538025,840.042236 813.572876,842.112915 812.639832,844.195312 
	C866.063354,867.956726 885.287048,916.479187 879.703064,959.936035 
	C873.781555,1006.019714 839.176575,1042.529175 793.628479,1051.980957 
	C753.051270,1060.401367 696.097717,1043.862793 672.237305,988.641235 
	C589.574402,1026.411255 506.103180,1028.387207 422.714569,992.070801 
	C364.828156,966.860779 320.261505,925.830688 287.054108,870.239380 
	C290.783661,872.000305 293.296997,873.039185 295.672729,874.331177 
	C325.421051,890.509216 357.115173,900.894104 390.545807,905.948792 
	C440.563080,913.511169 489.439026,908.798828 536.944153,891.360413 
	C571.026611,878.849243 601.803406,860.675598 629.223877,836.746094 
	C660.113464,809.789001 684.551331,777.972656 702.327576,741.079956 
	C716.266296,712.151489 725.245789,681.723145 729.131042,649.803101 
	C734.669250,604.303406 730.531921,559.710327 715.105713,516.566345 
	C708.988831,499.458588 700.322021,483.262573 692.916992,466.315735 
	C693.017761,465.980011 692.975464,466.032959 692.975464,466.032959 
z"/>
<path fill="#C7D6AC" opacity="1.000000" stroke="none" 
	d="
M739.746826,242.676132 
	C727.328796,242.978104 714.611450,242.984406 701.420105,242.980652 
	C701.680176,242.665680 702.415344,242.092636 703.148071,242.095795 
	C715.248047,242.147797 727.347778,242.272263 739.746826,242.676132 
z"/>
<path fill="#AEBAB4" opacity="1.000000" stroke="none" 
	d="
M64.666458,524.215088 
	C64.967735,536.314209 64.978836,548.722534 64.974693,561.607300 
	C64.623413,560.014954 63.994007,557.945190 64.000771,555.877563 
	C64.034950,545.426147 64.234642,534.975281 64.666458,524.215088 
z"/>
<path fill="#A9AEAC" opacity="1.000000" stroke="none" 
	d="
M481.503326,731.017761 
	C478.270782,731.379211 474.577332,731.910339 470.878082,731.954468 
	C465.129883,732.023071 459.377686,731.760254 453.330444,731.352173 
	C462.369049,731.033936 471.704437,731.001526 481.503326,731.017761 
z"/>
<path fill="#C8D2A2" opacity="1.000000" stroke="none" 
	d="
M909.013428,632.487427 
	C909.368164,636.376343 909.865784,640.726990 909.960449,645.086365 
	C910.056702,649.515564 909.755615,653.953369 909.337952,658.681396 
	C909.024719,650.301270 909.002136,641.627075 909.013428,632.487427 
z"/>
<path fill="#CE9FB7" opacity="1.000000" stroke="none" 
	d="
M212.001404,287.001892 
	C212.093338,286.978790 212.183868,286.953766 212.134735,286.962372 
	C211.995087,286.996002 212.000000,287.000000 212.001404,287.001892 
z"/>
<path fill="#01A657" opacity="1.000000" stroke="none" 
	d="
M693.037903,465.952698 
	C692.829285,465.879791 692.600586,465.834229 692.371826,465.788635 
	C692.548828,465.727631 692.725830,465.666626 692.939148,465.819275 
	C692.975464,466.032959 693.017761,465.980011 693.037903,465.952698 
z"/>
<path fill="#019371" opacity="1.000000" stroke="none" 
	d="
M389.351135,615.692749 
	C389.377045,615.904297 389.199097,616.290527 388.891663,616.459106 
	C388.890564,616.116821 389.018921,615.992065 389.351135,615.692749 
z"/>
</svg>